<svg width="24" height="24" viewBox="0 0 24 24" fill="none" xmlns="http://www.w3.org/2000/svg">
  <path fill-rule="evenodd" clip-rule="evenodd" d="M0 12C0 18.6274 5.37258 24 12 24C18.6274 24 24 18.6274 24 12C24 5.37258 18.6274 0 12 0C5.37258 0 0 5.37258 0 12ZM21.8161 11.9979C21.8161 17.4203 17.4203 21.8161 11.9979 21.8161C6.57544 21.8161 2.17969 17.4203 2.17969 11.9979C2.17969 6.57544 6.57544 2.17969 11.9979 2.17969C17.4203 2.17969 21.8161 6.57544 21.8161 11.9979ZM12.0014 18.5412C12.6041 18.5412 13.0927 18.0528 13.0927 17.4503C13.0927 16.8478 12.6041 16.3594 12.0014 16.3594C11.3987 16.3594 10.9102 16.8478 10.9102 17.4503C10.9102 18.0528 11.3987 18.5412 12.0014 18.5412ZM13.0927 5.45508H10.9102V14.1824H13.0927V5.45508Z" fill="#242424"/>
</svg>
