<svg width="7" height="12" viewBox="0 0 7 12" fill="none" xmlns="http://www.w3.org/2000/svg">
  <path d="M0.264247 0.230627C0.113753 0.377069 0.0292366 0.575476 0.0292366 0.782328C0.0292366 0.989179 0.113753 1.18758 0.264247 1.33403L5.05547 5.98706L0.264247 10.6401C0.183494 10.7111 0.118453 10.7974 0.0730714 10.8936C0.0276893 10.9898 0.00291173 11.0939 0.000241507 11.1997C-0.00242871 11.3055 0.0170642 11.4107 0.0575377 11.5089C0.0980112 11.6072 0.158622 11.6964 0.235692 11.7712C0.312762 11.846 0.404686 11.9049 0.505887 11.9441C0.607088 11.9834 0.715456 12.0024 0.824417 11.9998C0.933379 11.9972 1.04066 11.9731 1.13976 11.9291C1.23886 11.885 1.3277 11.8219 1.4009 11.7435L6.76353 6.53876C6.83848 6.46627 6.89795 6.38014 6.93853 6.28529C6.97911 6.19045 7 6.08876 7 5.98606C7 5.88336 6.97911 5.78167 6.93853 5.68682C6.89795 5.59198 6.83848 5.50584 6.76353 5.43336L1.4009 0.228633C1.25001 0.0822372 1.0454 -4.56958e-08 0.832061 -3.63706e-08C0.618723 -2.70453e-08 0.414116 0.0822372 0.263219 0.228633L0.264247 0.230627Z" fill="black"/>
</svg>
