<svg width="16" height="16" viewBox="0 0 16 16" fill="none" xmlns="http://www.w3.org/2000/svg">
	<path fill-rule="evenodd" clip-rule="evenodd" d="M2.45307 4.96094C3.77366 3.76243 5.70268 2.50084 8 2.50084C10.2973 2.50084 12.2263 3.76243 13.5469 4.96094C14.2133 5.56567 14.7411 6.16903 15.1025 6.62111C15.2834 6.84752 15.4235 7.03698 15.5191 7.17102C15.5669 7.23807 15.6036 7.29133 15.6288 7.3285C15.6414 7.34709 15.6512 7.36167 15.658 7.37195L15.666 7.3841L15.6683 7.3877L15.6691 7.38886L15.6694 7.38928C15.6695 7.38945 15.6696 7.3896 15.25 7.66155C15.6696 7.9335 15.6695 7.93365 15.6694 7.93382L15.6691 7.93424L15.6683 7.9354L15.666 7.939L15.658 7.95115C15.6512 7.96143 15.6414 7.976 15.6288 7.9946C15.6036 8.03177 15.5669 8.08503 15.5191 8.15208C15.4235 8.28612 15.2834 8.47558 15.1025 8.70199C14.7411 9.15408 14.2133 9.75745 13.5469 10.3622C12.2264 11.5607 10.2973 12.8223 8 12.8223C5.70268 12.8223 3.77365 11.5607 2.45306 10.3622C1.78674 9.75745 1.25894 9.15408 0.897547 8.70199C0.716553 8.47558 0.576514 8.28612 0.480946 8.15208C0.433143 8.08503 0.396411 8.03177 0.371189 7.9946C0.358577 7.976 0.348838 7.96143 0.342027 7.95115L0.334012 7.939L0.331663 7.9354L0.330905 7.93424L0.330631 7.93382C0.330523 7.93365 0.330426 7.9335 0.75 7.66155C0.330427 7.3896 0.330524 7.38945 0.330632 7.38928L0.330906 7.38886L0.331664 7.38769L0.334013 7.3841L0.342028 7.37195C0.348839 7.36167 0.358578 7.34709 0.371191 7.3285C0.396412 7.29133 0.433144 7.23806 0.480947 7.17102C0.576515 7.03698 0.716554 6.84752 0.897548 6.62111C1.25894 6.16903 1.78674 5.56567 2.45307 4.96094ZM0.75 7.66155L0.330427 7.3896L0.154158 7.66155L0.330426 7.9335L0.75 7.66155ZM1.36014 7.66155C1.44168 7.7732 1.5484 7.91465 1.67865 8.07759C2.01584 8.4994 2.50758 9.06121 3.12512 9.62167C4.37226 10.7535 6.06823 11.8223 8 11.8223C9.93177 11.8223 11.6277 10.7535 12.8749 9.62167C13.4924 9.06121 13.9842 8.4994 14.3214 8.07759C14.4516 7.91465 14.5583 7.7732 14.6399 7.66155C14.5583 7.5499 14.4516 7.40845 14.3214 7.24552C13.9842 6.82371 13.4924 6.2619 12.8749 5.70145C11.6278 4.5696 9.93177 3.50084 8 3.50084C6.06823 3.50084 4.37226 4.5696 3.12512 5.70145C2.50758 6.2619 2.01583 6.82371 1.67865 7.24552C1.5484 7.40845 1.44168 7.5499 1.36014 7.66155ZM15.25 7.66155L15.6696 7.9335L15.8458 7.66155L15.6696 7.3896L15.25 7.66155Z" fill="white" />
	<path fill-rule="evenodd" clip-rule="evenodd" d="M5.04248 7.53057C5.04248 5.82273 6.32971 4.36974 8.00011 4.36974C9.67051 4.36974 10.9577 5.82274 10.9577 7.53057C10.9577 9.23841 9.67051 10.6914 8.00011 10.6914C6.32971 10.6914 5.04248 9.23842 5.04248 7.53057ZM8.00011 5.36974C6.95531 5.36974 6.04248 6.29873 6.04248 7.53057C6.04248 8.76242 6.95531 9.6914 8.00011 9.6914C9.04489 9.6914 9.9577 8.76243 9.9577 7.53057C9.9577 6.29872 9.04489 5.36974 8.00011 5.36974Z" fill="white" />
</svg>
