<svg width="50" height="50" viewBox="0 0 50 50" fill="none" xmlns="http://www.w3.org/2000/svg">
  <path fill-rule="evenodd" clip-rule="evenodd" d="M34.6064 45.1256C28.7969 45.1256 24.0873 40.416 24.0873 34.6064C24.0873 28.7969 28.7969 24.0873 34.6064 24.0873C40.416 24.0873 45.1255 28.7969 45.1255 34.6064C45.1255 37.0373 44.301 39.2756 42.9163 41.0568L49.9999 48.1405L48.1404 50L41.0568 42.9164C39.2755 44.301 37.0373 45.1256 34.6064 45.1256ZM42.4957 34.6064C42.4957 38.9636 38.9635 42.4958 34.6064 42.4958C30.2492 42.4958 26.717 38.9636 26.717 34.6064C26.717 30.2493 30.2492 26.7171 34.6064 26.7171C38.9635 26.7171 42.4957 30.2493 42.4957 34.6064Z" fill="#D5D5D5"/>
  <path fill-rule="evenodd" clip-rule="evenodd" d="M7.6369 0H30.0391L37 11.4554V22H34V12L28.3109 3.22913H9.36507L3 12V35H22V38H0V11.4554L7.6369 0Z" fill="#D5D5D5"/>
  <path fill-rule="evenodd" clip-rule="evenodd" d="M17 12V2H20V12H17Z" fill="#D5D5D5"/>
  <path fill-rule="evenodd" clip-rule="evenodd" d="M34.5 15H2.5V12H34.5V15Z" fill="#D5D5D5"/>
</svg>
