<svg width="20" height="20" viewBox="0 0 20 20" fill="none" xmlns="http://www.w3.org/2000/svg">
<path fill-rule="evenodd" clip-rule="evenodd" d="M7.50008 0.833313H12.5001C13.4206 0.833313 14.1667 1.57951 14.1667 2.49998V3.33331H16.6667C17.5872 3.33331 18.3334 4.0795 18.3334 4.99998V6.66665C18.3334 7.58712 17.5872 8.33331 16.6667 8.33331H16.6L15.8334 17.5C15.8334 18.4205 15.0872 19.1666 14.1667 19.1666H5.83341C4.91294 19.1666 4.16675 18.4205 4.16963 17.5692L3.39997 8.33331H3.33341C2.41294 8.33331 1.66675 7.58712 1.66675 6.66665V4.99998C1.66675 4.0795 2.41294 3.33331 3.33341 3.33331H5.83341V2.49998C5.83341 1.57951 6.57961 0.833313 7.50008 0.833313ZM3.33341 4.99998H5.83341H14.1667H16.6667V6.66665H3.33341V4.99998ZM5.07215 8.33331H14.9277L14.1696 17.4308L14.1667 17.5H5.83341L5.07215 8.33331ZM12.5001 2.49998V3.33331H7.50008V2.49998H12.5001ZM6.91083 10.5892L8.08934 9.41073L10.0001 11.3215L11.9108 9.41073L13.0893 10.5892L11.1786 12.5L13.0893 14.4107L11.9108 15.5892L10.0001 13.6785L8.08934 15.5892L6.91083 14.4107L8.82157 12.5L6.91083 10.5892Z" fill="#B6B6B6"/>
</svg>
