<svg width="20" height="20" viewBox="0 0 20 20" fill="none" xmlns="http://www.w3.org/2000/svg">
<path fill-rule="evenodd" clip-rule="evenodd" d="M13.6979 1.66669C14.2435 1.66669 14.7665 1.88454 15.1485 2.26954L17.7326 4.85362C18.1173 5.23835 18.3335 5.76016 18.3335 6.30425C18.3335 6.84835 18.1173 7.37015 17.7326 7.75488L8.298 17.1865C7.71594 17.8579 6.89083 18.2705 5.94558 18.3353H1.66675V17.502L1.66945 13.9894C1.74045 13.1107 2.14897 12.2936 2.77216 11.7445L12.2462 2.27054C12.6304 1.88404 13.1529 1.66669 13.6979 1.66669ZM5.88673 16.6707C6.33192 16.6392 6.74632 16.432 7.07908 16.0514L13.3807 9.74979L10.252 6.62103L3.9135 12.958C3.57587 13.2566 3.36701 13.6744 3.33341 14.0565V16.6691L5.88673 16.6707ZM11.4307 5.44266L14.5592 8.57128L16.5541 6.57637C16.6262 6.5042 16.6668 6.40632 16.6668 6.30425C16.6668 6.20219 16.6262 6.10431 16.5541 6.03213L13.9677 3.44573C13.8963 3.37381 13.7992 3.33335 13.6979 3.33335C13.5966 3.33335 13.4994 3.37381 13.4281 3.44573L11.4307 5.44266Z" fill="#B6B6B6"/>
</svg>
