<svg width="12" height="14" viewBox="0 0 12 14" fill="none" 
  xmlns="http://www.w3.org/2000/svg" style="transform: rotate(-180deg);">
  <path fill-rule="evenodd" clip-rule="evenodd" d="M6.91879 10.6735L10.0866 7.76873C10.4326 7.45147 10.9649 7.45556 11.306 7.7781C11.6817 8.13343 11.6788 8.73238 11.2997 9.08407L6.68007 13.3692C6.29649 13.725 5.70351 13.725 5.31993 13.3692L0.700329 9.08407C0.321188 8.73238 0.3183 8.13343 0.694033 7.7781C1.0351 7.45556 1.56745 7.45147 1.91343 7.76873L5.08121 10.6735L5.08121 0.918793C5.08121 0.411359 5.49257 1.98591e-06 6 1.99317e-06C6.50743 2.00043e-06 6.91879 0.411358 6.91879 0.918792L6.91879 10.6735Z" fill="black"/>
</svg>
