<svg width="64" height="64" viewBox="0 0 64 64" fill="none" xmlns="http://www.w3.org/2000/svg">
<path fill-rule="evenodd" clip-rule="evenodd" d="M29.2227 5C42.6 5.00024 53.4443 15.8452 53.4443 29.2227C53.4442 35.1913 51.2835 40.6541 47.7041 44.876L58.4141 55.5859L55.5859 58.4141L44.876 47.7041C40.6541 51.2835 35.1913 53.4442 29.2227 53.4443C15.8452 53.4443 5.00024 42.6 5 29.2227C5 15.8451 15.8451 5 29.2227 5ZM29.2227 9C18.0542 9 9 18.0542 9 29.2227C9.00024 40.3909 18.0544 49.4443 29.2227 49.4443C40.3907 49.4441 49.4441 40.3907 49.4443 29.2227C49.4443 18.0544 40.3909 9.00024 29.2227 9ZM38.9961 22.2783L37.5811 23.6924L32.0508 29.2227L37.5811 34.7529L38.9961 36.167L36.167 38.9961L34.7529 37.5811L29.2227 32.0508L23.6924 37.5811L22.2783 38.9961L19.4502 36.167L26.3945 29.2227L19.4502 22.2783L22.2783 19.4502L29.2227 26.3945L36.167 19.4502L38.9961 22.2783Z" fill="#D5D5D5"/>
</svg>
