<svg width="24" height="24" viewBox="0 0 24 24" fill="none" xmlns="http://www.w3.org/2000/svg">
	<path fill-rule="evenodd" clip-rule="evenodd" d="M10.6667 17.3333C6.98477 17.3333 4 14.3486 4 10.6667C4 6.98477 6.98477 4 10.6667 4C14.3486 4 17.3333 6.98477 17.3333 10.6667C17.3333 12.2073 16.8108 13.6258 15.9332 14.7547L20.4226 19.2441L19.2441 20.4226L14.7547 15.9332C13.6258 16.8108 12.2073 17.3333 10.6667 17.3333ZM15.6666 10.6666C15.6666 13.4281 13.428 15.6666 10.6666 15.6666C7.90516 15.6666 5.66659 13.4281 5.66659 10.6666C5.66659 7.90522 7.90516 5.66665 10.6666 5.66665C13.428 5.66665 15.6666 7.90522 15.6666 10.6666Z" fill="#D5D5D5" />
</svg>
