<svg width="20" height="20" viewBox="0 0 20 20" fill="none" xmlns="http://www.w3.org/2000/svg">
	<path d="M17 10C17 11.6195 16.4385 13.1889 15.4111 14.4408C14.3837 15.6926 12.954 16.5495 11.3657 16.8655C9.77729 17.1814 8.1285 16.9369 6.70024 16.1734C5.27198 15.41 4.15262 14.175 3.53287 12.6788C2.91311 11.1826 2.83133 9.51776 3.30144 7.96801C3.77155 6.41825 4.76448 5.07945 6.11103 4.17971C7.45758 3.27997 9.07445 2.87497 10.6861 3.03371C12.0062 3.16372 13.2558 3.6653 14.294 4.47173C14.6757 4.76817 14.6728 5.32726 14.331 5.66897V5.66897C13.9893 6.01068 13.4387 6.00353 13.045 5.72325C12.3028 5.1948 11.4313 4.86557 10.5146 4.77528C9.30584 4.65623 8.09319 4.95998 7.08328 5.63478C6.07336 6.30959 5.32867 7.31369 4.97608 8.47601C4.6235 9.63832 4.68484 10.8869 5.14965 12.0091C5.61447 13.1312 6.45399 14.0575 7.52519 14.6301C8.59638 15.2027 9.83297 15.3861 11.0242 15.1491C12.2155 14.9122 13.2878 14.2695 14.0583 13.3306C14.8289 12.3917 15.25 11.2146 15.25 10H17Z" fill="url(#paint0_linear)">
    <animateTransform attributeType="xml" attributeName="transform" type="rotate" from="0 10 10" to="360 10 10" dur="0.75s" repeatCount="indefinite"/>
  </path>
	<path d="M17 10C17 11.6195 16.4385 13.1889 15.4111 14.4408C14.3837 15.6926 12.954 16.5495 11.3657 16.8655C9.77729 17.1814 8.1285 16.9369 6.70024 16.1734C5.27198 15.41 4.15262 14.175 3.53287 12.6788C2.91311 11.1826 2.83133 9.51776 3.30144 7.96801C3.77155 6.41825 4.76448 5.07945 6.11103 4.17971C7.45758 3.27997 9.07445 2.87497 10.6861 3.03371C12.0062 3.16372 13.2558 3.6653 14.294 4.47173C14.6757 4.76817 14.6728 5.32726 14.331 5.66897V5.66897C13.9893 6.01068 13.4387 6.00353 13.045 5.72325C12.3028 5.1948 11.4313 4.86557 10.5146 4.77528C9.30584 4.65623 8.09319 4.95998 7.08328 5.63478C6.07336 6.30959 5.32867 7.31369 4.97608 8.47601C4.6235 9.63832 4.68484 10.8869 5.14965 12.0091C5.61447 13.1312 6.45399 14.0575 7.52519 14.6301C8.59638 15.2027 9.83297 15.3861 11.0242 15.1491C12.2155 14.9122 13.2878 14.2695 14.0583 13.3306C14.8289 12.3917 15.25 11.2146 15.25 10H17Z" fill="url(#paint1_linear)">
    <animateTransform attributeType="xml" attributeName="transform" type="rotate" from="0 10 10" to="360 10 10" dur="0.75s" repeatCount="indefinite"/>
  </path>
	<defs>
		<linearGradient id="paint0_linear" x1="14.5" y1="5.5" x2="16.5" y2="10" gradientUnits="userSpaceOnUse">
			<stop stop-color="white" />
			<stop offset="1" stop-color="white" stop-opacity="0" />
		</linearGradient>
		<linearGradient id="paint1_linear" x1="10" y1="16" x2="17" y2="9.5" gradientUnits="userSpaceOnUse">
			<stop stop-color="white" />
			<stop offset="1" stop-color="white" stop-opacity="0" />
		</linearGradient>
	</defs>
</svg>
